<svg xmlns="http://www.w3.org/2000/svg" width="18" height="23" viewBox="0 0 18 23">
    <g fill="none">
        <path fill="#FFF" d="M15.033 12.196c.031 3.474 2.935 4.63 2.967 4.645-.025.081-.464 1.647-1.53 3.265-.921 1.398-1.877 2.791-3.384 2.82-1.48.029-1.956-.911-3.648-.911-1.692 0-2.22.882-3.622.94-1.454.057-2.561-1.513-3.49-2.906C.427 17.2-1.024 11.995.924 8.483 1.892 6.739 3.622 5.634 5.5 5.606c1.427-.028 2.775.997 3.648.997.872 0 2.51-1.233 4.232-1.052.72.031 2.744.302 4.043 2.277-.105.067-2.414 1.463-2.389 4.368m-2.782-8.53c.772-.971 1.292-2.322 1.15-3.666-1.113.046-2.458.77-3.256 1.74-.716.859-1.342 2.233-1.173 3.55 1.24.1 2.507-.654 3.28-1.625"/>
        <path d="M0 0H18V23H0z"/>
    </g>
</svg>
