<svg xmlns="http://www.w3.org/2000/svg" width="22" height="21" viewBox="0 0 22 21">
    <g fill="none">
        <g>
            <path fill="#FFC107" d="M22.022 9.22h-.858v-.042H11.57v4.144h6.024c-.879 2.413-3.24 4.145-6.024 4.145-3.531 0-6.394-2.784-6.394-6.217S8.04 5.033 11.57 5.033c1.63 0 3.114.598 4.243 1.574l3.014-2.93C16.925 1.952 14.378.888 11.571.888 5.686.888.914 5.528.914 11.25S5.686 21.612 11.57 21.612c5.886 0 10.658-4.64 10.658-10.362 0-.695-.073-1.373-.207-2.03z" transform="translate(-2 -2) translate(1.357 1.25)"/>
            <path fill="#FF3D00" d="M2.142 6.427l3.502 2.497c.948-2.28 3.242-3.891 5.927-3.891 1.63 0 3.114.598 4.243 1.574l3.014-2.93C16.925 1.952 14.378.888 11.571.888c-4.093 0-7.643 2.247-9.429 5.54z" transform="translate(-2 -2) translate(1.357 1.25)"/>
            <path fill="#4CAF50" d="M11.571 21.612c2.753 0 5.255-1.024 7.146-2.69l-3.299-2.714c-1.106.818-2.457 1.26-3.847 1.26-2.772 0-5.125-1.72-6.012-4.118l-3.476 2.604c1.764 3.355 5.346 5.658 9.488 5.658z" transform="translate(-2 -2) translate(1.357 1.25)"/>
            <path fill="#1976D2" d="M22.022 9.22h-.858v-.042H11.57v4.144h6.024c-.42 1.149-1.178 2.152-2.178 2.887l.001-.001 3.299 2.713c-.233.207 3.512-2.49 3.512-7.671 0-.695-.073-1.373-.207-2.03z" transform="translate(-2 -2) translate(1.357 1.25)"/>
        </g>
        <path d="M0.071 0H25.785V25H0.071z" transform="translate(-2 -2)"/>
    </g>
</svg>
