<svg xmlns="http://www.w3.org/2000/svg" width="10" height="15" viewBox="0 0 10 15">
  <g fill="none" transform="translate(-4 -2)">
    <path fill="#FFF" d="M8.85,1.15297619 C8.65457445,0.971050281 8.38922346,0.868806668 8.1125,0.868806668 C7.83577654,0.868806668 7.57042555,0.971050281 7.375,1.15297619 L0.45,7.58333333 C0.293976593,7.72791546 0.20629664,7.9241891 0.20629664,8.12886905 C0.20629664,8.33354899 0.293976593,8.52982263 0.45,8.67440476 L7.375,15.1047619 C7.78333333,15.4839286 8.44166667,15.4839286 8.85,15.1047619 C9.25833333,14.7255952 9.25833333,14.1142857 8.85,13.735119 L2.81666667,8.125 L8.85833333,2.51488095 C9.25833333,2.14345238 9.25833333,1.52440476 8.85,1.15297619 Z" transform="translate(4.375 1.25)"/>
    <rect width="18.75" height="18.75" x=".625"/>
  </g>
</svg>
