<svg xmlns="http://www.w3.org/2000/svg" width="233" height="40" viewBox="0 0 233 40">
    <g fill="#FFF">
        <path d="M111.281 2L131.757 2 130.961 6.546 115.525 6.546 113.615 17.382 125.497 17.382 124.702 21.927 112.82 21.927 109.796 39 104.757 39 111.281 2zM133.187 12.957h4.07l-.361 4.305c1.443-1.807 2.825-3.136 4.147-3.986 1.322-.85 2.653-1.276 3.992-1.276h.722l-1.855 5.262h-1.7c-.927 0-1.932.345-3.014 1.036-1.081.691-1.897 1.462-2.446 2.312L133.599 39h-4.842l4.43-26.043zM150.08 2h4.677l-.874 5.286h-4.678L150.08 2zm-1.903 11.1h4.678l-4.42 25.9h-4.678l4.42-25.9zM166.41 40c-3.48 0-6.125-1.041-7.937-3.123-1.81-2.083-2.716-4.783-2.716-8.1 0-2.753.603-5.339 1.811-7.756 1.207-2.418 2.894-4.36 5.06-5.824 2.167-1.464 4.617-2.197 7.352-2.197 2.485 0 4.403.6 5.752 1.8 1.35 1.2 2.025 2.806 2.025 4.818 0 1.447-.382 2.832-1.146 4.156-.763 1.323-2.05 2.417-3.861 3.282-1.812.865-4.191 1.297-7.139 1.297-.852 0-1.73-.044-2.636-.132-.906-.089-1.59-.186-2.051-.291 0 2.894.595 4.923 1.784 6.088 1.19 1.164 2.85 1.747 4.981 1.747 1.101 0 2.3-.133 3.596-.397 1.296-.265 2.494-.644 3.595-1.139l-.213 3.76c-2.344 1.34-5.096 2.011-8.257 2.011zm-1.225-14.876c2.877 0 4.954-.495 6.233-1.483 1.278-.988 1.918-2.135 1.918-3.441 0-.988-.356-1.73-1.066-2.223-.71-.495-1.634-.742-2.77-.742-1.705 0-3.25.61-4.634 1.827-1.385 1.218-2.522 3.062-3.41 5.532 1.066.353 2.309.53 3.73.53zM183.323 13.52h4.089l-.16 2.704c1.31-1.213 2.576-2.054 3.797-2.522 1.221-.468 2.54-.702 3.956-.702 2.69 0 4.654.693 5.893 2.08 1.24 1.387 1.859 3.415 1.859 6.084 0 .693-.168 2.08-.505 4.16-.336 2.08-1.141 6.639-2.416 13.676h-4.831c1.274-7.037 2.07-11.535 2.389-13.494.319-1.959.478-3.198.478-3.718 0-1.595-.363-2.765-1.089-3.51-.725-.745-1.85-1.118-3.371-1.118-1.346 0-2.576.277-3.69.832-1.116.555-2.045 1.387-2.788 2.496L183.589 39h-4.832l4.566-25.48zM233.757 0l-6.88 39.474h-4.327l.209-3.263c-1.077 1.228-2.259 2.166-3.545 2.815-1.285.65-2.606.974-3.961.974-1.668 0-3.145-.474-4.43-1.421-1.286-.947-2.285-2.246-2.998-3.895-.712-1.649-1.068-3.509-1.068-5.579 0-2.666.565-5.228 1.694-7.684 1.13-2.456 2.676-4.447 4.639-5.974 1.963-1.526 4.161-2.29 6.593-2.29 1.495 0 2.754.29 3.78.87 1.024.578 1.902 1.5 2.632 2.762L229.013 0h4.744zm-16.94 35.79c1.355 0 2.667-.43 3.935-1.29 1.268-.86 2.293-2.114 3.075-3.763.782-1.65 1.173-3.597 1.173-5.842 0-2.527-.486-4.412-1.46-5.658-.972-1.246-2.258-1.869-3.857-1.869-1.494 0-2.849.518-4.065 1.553-1.216 1.035-2.18 2.421-2.893 4.158-.712 1.737-1.068 3.605-1.068 5.605 0 2.106.425 3.816 1.276 5.132.852 1.316 2.146 1.973 3.884 1.973zM6.93 4L27.757 4 26.653 10.2 12.299 10.2 10.944 17.65 22.086 17.65 20.982 23.85 9.84 23.85 7.181 39 .757 39 6.93 4zM35.713 40c-2.149 0-3.968-.459-5.46-1.376-1.49-.917-2.612-2.155-3.366-3.716-.753-1.56-1.13-3.322-1.13-5.285 0-2.541.601-4.93 1.803-7.166 1.203-2.237 2.878-4.038 5.026-5.406C34.735 15.684 37.14 15 39.801 15c2.148 0 3.968.459 5.459 1.376 1.49.917 2.613 2.155 3.366 3.716.754 1.56 1.13 3.322 1.13 5.285 0 2.541-.6 4.93-1.803 7.166-1.202 2.237-2.878 4.038-5.026 5.406C40.779 39.316 38.374 40 35.713 40zm.817-4.923c1.347 0 2.557-.418 3.632-1.255 1.074-.836 1.915-1.97 2.525-3.402.609-1.432.913-2.968.913-4.609 0-1.866-.392-3.314-1.178-4.344-.786-1.03-1.932-1.544-3.439-1.544-1.346 0-2.557.418-3.631 1.255-1.074.836-1.916 1.954-2.525 3.354-.61 1.4-.914 2.936-.914 4.609 0 1.866.393 3.322 1.178 4.368.786 1.045 1.932 1.568 3.44 1.568zM61.713 40c-2.149 0-3.968-.459-5.46-1.376-1.49-.917-2.612-2.155-3.366-3.716-.753-1.56-1.13-3.322-1.13-5.285 0-2.541.601-4.93 1.803-7.166 1.203-2.237 2.878-4.038 5.026-5.406C60.735 15.684 63.14 15 65.801 15c2.148 0 3.968.459 5.459 1.376 1.49.917 2.613 2.155 3.366 3.716.754 1.56 1.13 3.322 1.13 5.285 0 2.541-.6 4.93-1.803 7.166-1.202 2.237-2.878 4.038-5.026 5.406C66.779 39.316 64.374 40 61.713 40zm.817-4.923c1.347 0 2.557-.418 3.632-1.255 1.074-.836 1.915-1.97 2.525-3.402.609-1.432.913-2.968.913-4.609 0-1.866-.392-3.314-1.178-4.344-.786-1.03-1.932-1.544-3.439-1.544-1.346 0-2.557.418-3.631 1.255-1.074.836-1.916 1.954-2.525 3.354-.61 1.4-.914 2.936-.914 4.609 0 1.866.393 3.322 1.178 4.368.786 1.045 1.932 1.568 3.44 1.568zM106.757 2l-6.553 36.513h-5.859l.497-2.58C92.592 37.978 90.192 39 87.643 39c-2.813 0-4.997-.917-6.553-2.75-1.556-1.834-2.333-4.196-2.333-7.084 0-2.63.52-5.128 1.563-7.498 1.043-2.369 2.54-4.276 4.493-5.72 1.953-1.444 4.22-2.167 6.802-2.167 2.747 0 4.849.99 6.305 2.97L100.6 2h6.157zM89.778 34.034c1.555 0 2.855-.487 3.897-1.46 1.043-.974 1.812-2.207 2.309-3.7.496-1.493.744-3.019.744-4.577 0-3.7-1.472-5.55-4.418-5.55-1.39 0-2.631.43-3.723 1.29-1.093.86-1.937 2.02-2.532 3.481-.596 1.461-.894 3.068-.894 4.82 0 1.785.38 3.18 1.142 4.187.761 1.006 1.92 1.51 3.475 1.51z" transform="translate(-.757)"/>
    </g>
</svg>
