<svg xmlns="http://www.w3.org/2000/svg" xmlns:xlink="http://www.w3.org/1999/xlink" width="252" height="284" viewBox="0 0 252 284">
    <defs>
        <path id="prefix__a" d="M1.047 20.524c.184.192.373.197.565.013L14.367 8.35c.077-.074.152-.072.226.005l3.233 3.384c.184.192.373.197.566.012l.838-.8c.193-.185.197-.374.013-.566L16.01 7.002c-.074-.077-.072-.153.005-.226l.752-.719c1.215-1.16 2.29-1.791 3.226-1.893.936-.1 1.948.417 3.034 1.555l.608.636c.185.193.373.197.566.013l.78-.746c.194-.184.198-.373.014-.566l-.719-.752c-1.087-1.137-2.098-1.858-3.034-2.162-.936-.305-1.866-.264-2.79.12-.923.385-1.954 1.12-3.091 2.207l-.81.774c-.077.073-.153.072-.226-.005L12.5 3.328c-.184-.192-.373-.196-.566-.012l-.838.801c-.193.184-.198.373-.013.566l1.823 1.909c.074.077.072.152-.005.226L.148 19.004c-.193.184-.197.372-.013.565l.912.955zm11.797 11.281c1.438 1.233 2.989 1.913 4.653 2.04 1.665.128 3.207-.289 4.628-1.249.52-.361 1.044-.808 1.57-1.34.527-.532 1.19-1.264 1.988-2.195.764-.89 1.372-1.642 1.827-2.254.454-.611.82-1.202 1.098-1.772.714-1.53.882-3.107.502-4.733-.38-1.626-1.28-3.046-2.696-4.261-1.458-1.25-3.004-1.935-4.64-2.055-1.636-.12-3.174.29-4.614 1.233-.9.599-2.087 1.759-3.563 3.48-1.475 1.72-2.449 3.08-2.92 4.082-.712 1.567-.883 3.16-.513 4.776.37 1.617 1.263 3.033 2.68 4.248zm1.224-1.427c-1.093-.937-1.763-2.02-2.008-3.25-.246-1.23-.055-2.435.573-3.618.397-.75 1.246-1.883 2.547-3.401 1.302-1.519 2.293-2.53 2.973-3.037 1.073-.8 2.236-1.174 3.488-1.119 1.253.056 2.426.552 3.519 1.49 1.093.936 1.767 2.024 2.023 3.262.256 1.238.07 2.449-.558 3.631-.33.63-1.189 1.756-2.578 3.375-1.37 1.6-2.362 2.612-2.972 3.037-1.056.78-2.22 1.144-3.49 1.09-1.272-.053-2.444-.54-3.517-1.46zm16.029 14.314c1.59 1.029 3.217 1.495 4.884 1.399 1.666-.097 3.14-.716 4.418-1.857.468-.428.927-.94 1.378-1.539.45-.597 1.009-1.411 1.676-2.44.637-.986 1.14-1.812 1.508-2.479.369-.667.652-1.3.851-1.903.504-1.612.459-3.198-.136-4.758-.594-1.56-1.674-2.847-3.241-3.862-1.612-1.043-3.236-1.515-4.873-1.415-1.637.1-3.107.713-4.408 1.84-.812.713-1.833 2.021-3.065 3.924s-2.015 3.381-2.348 4.436c-.496 1.649-.452 3.25.131 4.803s1.658 2.836 3.225 3.85zm1.022-1.578c-1.21-.783-2.018-1.767-2.425-2.952-.408-1.186-.38-2.407.083-3.663.293-.795.983-2.032 2.07-3.711 1.087-1.679 1.933-2.815 2.54-3.407.956-.938 2.058-1.463 3.307-1.576 1.248-.113 2.477.222 3.685 1.005 1.21.782 2.023 1.77 2.442 2.963.42 1.192.397 2.417-.067 3.673-.242.669-.943 1.899-2.103 3.69-1.145 1.768-1.991 2.904-2.54 3.407-.941.915-2.045 1.43-3.312 1.547-1.267.117-2.494-.208-3.68-.976zM48.65 54.99c1.063.496 2.119.725 3.167.685 1.05-.04 2.013-.34 2.893-.9.071-.026.122-.024.153.005.03.029.029.08-.005.152l-.83 1.776c-.113.241-.048.418.193.531l1.196.559c.242.113.419.048.532-.193l11.512-24.644c.113-.241.049-.418-.193-.531l-1.196-.559c-.241-.113-.418-.048-.531.193l-4.165 8.915c-.034.073-.078.104-.132.093-.054-.01-.076-.057-.066-.141-.135-1.034-.524-1.967-1.166-2.797-.643-.83-1.495-1.493-2.559-1.99-1.69-.79-3.316-1.012-4.876-.666-1.56.346-2.87 1.183-3.932 2.512-.405.488-.795 1.07-1.17 1.749-.376.678-.818 1.56-1.326 2.648-.52 1.111-.916 2.022-1.189 2.733-.273.712-.455 1.384-.546 2.02-.277 1.665-.052 3.198.678 4.598.729 1.4 1.915 2.484 3.558 3.252zm.977-1.619c-1.184-.553-2.052-1.341-2.604-2.364-.553-1.024-.712-2.099-.48-3.227.057-.562.181-1.144.374-1.745.193-.602.583-1.531 1.17-2.787.61-1.305 1.094-2.234 1.456-2.786.36-.552.757-1.007 1.189-1.365.741-.83 1.667-1.362 2.776-1.595 1.11-.232 2.232-.083 3.367.448 1.112.519 1.904 1.264 2.377 2.236.473.971.611 2.015.414 3.13-.056.561-.187 1.155-.39 1.781-.205.626-.606 1.58-1.204 2.86-.576 1.232-1.029 2.124-1.36 2.675-.332.552-.689 1.018-1.073 1.398-.764.88-1.673 1.455-2.727 1.728-1.055.272-2.15.143-3.285-.387zM78.65 40.619c.559.177 1.073.144 1.542-.099.468-.243.791-.644.969-1.203.177-.56.144-1.073-.099-1.542-.243-.469-.644-.792-1.203-.97-.56-.176-1.073-.144-1.542.1-.469.242-.792.643-.97 1.203-.176.559-.144 1.073.1 1.542.242.468.643.791 1.203.969zm-6.771 23.198c.254.08.421-.006.502-.26l5.853-18.454c.081-.254-.006-.422-.26-.502l-1.258-.4c-.254-.08-.422.007-.502.261L70.36 62.916c-.08.254.006.422.26.502l1.259.4zm13.843 3.56c2.116.436 3.91.281 5.384-.463 1.474-.745 2.38-1.94 2.72-3.585.236-1.15.102-2.15-.403-3.003-.505-.853-1.168-1.568-1.988-2.145-.82-.578-1.943-1.244-3.366-2-1.643-.883-2.824-1.657-3.545-2.323-.72-.666-.978-1.495-.774-2.487.215-1.045.83-1.783 1.845-2.214 1.014-.43 2.253-.496 3.715-.194 1.515.312 2.668.896 3.458 1.753.79.857 1.082 1.782.878 2.774l-.024.118c-.054.26.05.418.311.472l1.214.25c.262.054.42-.05.473-.31l.024-.118c.205-.993.094-1.941-.333-2.846-.426-.905-1.121-1.694-2.085-2.37-.963-.674-2.137-1.154-3.522-1.44-2.063-.424-3.826-.29-5.29.402-1.462.693-2.358 1.835-2.686 3.429-.226 1.097-.106 2.067.36 2.912.466.845 1.102 1.554 1.91 2.13.807.574 1.896 1.234 3.268 1.979 1.199.655 2.093 1.173 2.681 1.553.59.38 1.07.853 1.444 1.42.373.567.484 1.216.334 1.947-.215 1.045-.853 1.826-1.912 2.343-1.06.517-2.32.625-3.783.324-1.489-.307-2.645-.906-3.469-1.797-.824-.891-1.136-1.82-.937-2.786l.088-.431c.054-.261-.05-.419-.31-.473l-1.215-.25c-.261-.054-.419.05-.473.311l-.105.51c-.193.94-.07 1.864.37 2.77.438.908 1.153 1.702 2.143 2.382.99.68 2.19 1.166 3.6 1.456zm22.311 2.166c.266-.016.391-.158.374-.424l-.819-13.094c-.096-1.544.286-2.797 1.148-3.76.862-.961 2.078-1.492 3.648-1.59 1.464-.091 2.677.294 3.64 1.155.961.862 1.492 2.078 1.59 3.648l.814 13.015c.016.266.158.39.424.374l1.277-.08c.267-.017.391-.158.375-.424l-.82-13.095c-.096-1.543.3-2.797 1.188-3.761.889-.964 2.105-1.494 3.648-1.59 1.464-.092 2.684.292 3.66 1.153.975.86 1.512 2.076 1.61 3.647l.814 13.014c.017.266.158.391.424.374l1.278-.08c.266-.016.39-.158.374-.424l-.839-13.413c-.128-2.05-.814-3.623-2.059-4.721-1.244-1.098-2.837-1.586-4.78-1.465-1.41.089-2.63.459-3.658 1.11-1.028.653-1.786 1.569-2.273 2.748-.075.085-.142.076-.202-.027-.574-1.06-1.379-1.858-2.414-2.394-1.036-.537-2.246-.762-3.63-.675-1.197.075-2.255.355-3.173.84-.919.485-1.63 1.17-2.136 2.057-.023.055-.062.07-.117.047-.055-.023-.084-.061-.088-.114l-.112-1.797c-.017-.266-.158-.39-.424-.374l-1.318.082c-.266.017-.39.158-.374.424l1.208 19.323c.017.266.159.39.425.374l1.317-.083zm38.185-1.668c1.678-.312 3.069-.964 4.173-1.955 1.104-.992 1.825-2.184 2.163-3.576.066-.229-.031-.387-.292-.474l-1.117-.322c-.23-.066-.388.032-.475.292-.313 1.089-.856 1.997-1.63 2.724-.773.726-1.776 1.204-3.008 1.433-1.547.288-2.895.152-4.043-.408-1.148-.56-1.986-1.455-2.513-2.686-.233-.526-.506-1.628-.818-3.306-.02-.105.023-.167.128-.187l12.82-2.382c.263-.049.37-.204.321-.466-.185-.997-.353-1.827-.503-2.49-.15-.664-.312-1.238-.483-1.721-.68-1.908-1.766-3.3-3.257-4.175-1.492-.876-3.313-1.114-5.463-.715-1.887.351-3.388 1.145-4.5 2.383-1.113 1.237-1.726 2.72-1.838 4.45-.029.575-.002 1.194.08 1.857.083.663.243 1.636.482 2.921.23 1.232.458 2.248.688 3.046.23.798.51 1.505.842 2.122.76 1.459 1.864 2.515 3.314 3.167 1.45.653 3.093.809 4.929.468zm3.212-12.273l-10.973 2.038c-.104.02-.167-.023-.186-.128-.235-1.556-.333-2.596-.295-3.118.033-1.281.453-2.383 1.258-3.306.805-.922 1.915-1.515 3.33-1.778 1.416-.263 2.681-.098 3.795.495 1.114.593 1.932 1.492 2.454 2.697.253.631.501 1.602.745 2.913.02.105-.023.167-.128.187zm16.893 7.12c1.11-.378 2.03-.944 2.76-1.698.73-.755 1.218-1.64 1.465-2.653.033-.067.07-.101.113-.101.042 0 .076.037.102.113l.63 1.856c.086.252.255.335.508.25l1.25-.425c.252-.086.336-.255.25-.507l-8.75-25.754c-.086-.253-.256-.336-.508-.25l-1.25.424c-.252.086-.336.255-.25.508l3.166 9.316c.025.076.015.129-.031.159s-.095.01-.146-.056c-.813-.653-1.739-1.057-2.777-1.211-1.038-.154-2.113-.043-3.224.335-1.767.6-3.094 1.565-3.98 2.894-.886 1.33-1.253 2.84-1.1 4.535.046.632.168 1.323.366 2.072.199.75.49 1.692.877 2.829.395 1.161.74 2.093 1.034 2.795.295.703.63 1.314 1.004 1.835.952 1.394 2.177 2.345 3.672 2.85 1.496.506 3.102.467 4.819-.116zm-.416-1.845c-1.237.42-2.409.453-3.516.097-1.106-.357-1.966-1.022-2.579-1.997-.348-.445-.661-.95-.938-1.518-.278-.568-.64-1.508-1.086-2.821-.463-1.364-.755-2.37-.877-3.018-.122-.649-.15-1.252-.087-1.809-.04-1.113.26-2.137.9-3.072.64-.936 1.553-1.605 2.74-2.009 1.16-.394 2.249-.405 3.263-.031 1.014.374 1.836 1.03 2.465 1.972.348.445.666.963.951 1.556.286.593.657 1.559 1.111 2.897l.107.315c.378 1.13.633 1.982.764 2.558.143.627.207 1.21.193 1.75.058 1.164-.2 2.209-.772 3.136-.572.926-1.452 1.591-2.639 1.994zm5.876-26.103c.537-.237.9-.602 1.091-1.094.191-.492.168-1.007-.069-1.544-.236-.536-.6-.9-1.093-1.091-.492-.19-1.007-.168-1.544.069-.536.237-.9.601-1.091 1.094-.191.492-.168 1.006.069 1.543.237.537.601.9 1.093 1.092.493.19 1.007.167 1.544-.07zm10.265 21.878c.244-.108.312-.284.205-.528l-7.816-17.712c-.107-.244-.283-.312-.527-.205l-1.208.533c-.244.108-.312.283-.204.527l7.815 17.713c.108.244.283.312.527.204l1.208-.532zm13.573-7.159c1.616-.987 2.763-2.242 3.442-3.766.678-1.524.787-3.02.328-4.49l-.24-.697c-.102-.219-.28-.281-.536-.188l-1.162.476c-.256.093-.33.28-.222.557l.07.192c.416 1.09.383 2.226-.097 3.41-.48 1.184-1.334 2.151-2.563 2.902-1.251.764-2.494 1.07-3.728.918-1.234-.153-2.305-.717-3.214-1.693-.705-.695-1.544-1.838-2.517-3.431-.96-1.57-1.6-2.85-1.924-3.84-.44-1.232-.446-2.431-.018-3.598.427-1.168 1.267-2.134 2.519-2.898 1.229-.75 2.473-1.066 3.734-.946 1.261.12 2.286.596 3.075 1.427l.394.415c.17.177.336.217.495.12l.068-.042 1.01-.804c.176-.17.216-.335.119-.494l-.042-.069c-.24-.29-.503-.567-.789-.83-1.069-1.035-2.44-1.603-4.112-1.707-1.672-.103-3.317.339-4.932 1.326-1.616.986-2.736 2.248-3.36 3.785-.623 1.538-.693 3.111-.209 4.722.4 1.319 1.113 2.82 2.142 4.504 1.07 1.752 2.087 3.084 3.05 3.996 1.249 1.174 2.694 1.839 4.334 1.993 1.641.153 3.27-.263 4.885-1.25zm-1.696-27.905c.476-.343.756-.775.84-1.296.085-.52-.044-1.02-.387-1.495-.343-.476-.775-.757-1.296-.841-.521-.085-1.02.044-1.496.387s-.756.775-.84 1.296c-.085.521.044 1.02.387 1.496s.775.756 1.296.84c.521.085 1.02-.044 1.496-.387zm14.578 19.275c.216-.156.246-.342.09-.559l-11.317-15.707c-.156-.216-.342-.247-.559-.09l-1.07.771c-.217.156-.247.342-.091.558l11.318 15.708c.155.216.342.246.558.09l1.07-.771zm7.66-6.028c.201-.174.215-.362.041-.564l-8.409-9.757c-1.027-1.192-1.484-2.478-1.372-3.86.112-1.381.774-2.594 1.986-3.639 1.171-1.01 2.447-1.449 3.827-1.318 1.38.13 2.584.792 3.61 1.984l8.357 9.696c.174.202.362.216.564.041l1-.861c.202-.174.216-.362.042-.564l-8.617-10c-1.34-1.555-2.9-2.394-4.678-2.516-1.778-.122-3.444.487-5 1.827-.949.818-1.635 1.718-2.057 2.698-.423.98-.57 1.995-.439 3.044.015.058.002.095-.037.111s-.084-.006-.136-.067l-1.28-1.484c-.174-.202-.362-.216-.564-.042l-1 .862c-.202.174-.216.362-.042.564l12.64 14.665c.173.202.361.216.563.042l1-.862zm19.519-18.303c1.136-1.274 1.837-2.64 2.103-4.1.266-1.46.107-2.844-.477-4.152-.088-.222-.262-.287-.521-.197l-1.08.43c-.222.088-.288.262-.198.521.42 1.053.545 2.103.378 3.152-.167 1.048-.667 2.04-1.502 2.975-1.047 1.174-2.196 1.89-3.447 2.151-1.25.26-2.46.065-3.631-.586-.507-.274-1.397-.978-2.67-2.114-.08-.071-.084-.147-.013-.226l8.681-9.73c.178-.2.167-.388-.032-.566-.756-.674-1.397-1.228-1.922-1.66-.525-.433-1.004-.789-1.435-1.066C228.211.27 226.5-.165 224.785.056c-1.716.22-3.302 1.146-4.757 2.778-1.279 1.433-1.979 2.979-2.102 4.638-.122 1.66.301 3.208 1.27 4.645.33.472.73.945 1.2 1.419.472.473 1.195 1.145 2.17 2.015.935.835 1.737 1.497 2.408 1.988.67.49 1.325.878 1.964 1.163 1.494.689 3.014.848 4.56.476 1.546-.371 2.941-1.253 4.184-2.646zM230.71 4.86l-7.43 8.327c-.07.08-.146.084-.225.013-1.139-1.087-1.853-1.849-2.142-2.286-.758-1.033-1.1-2.161-1.028-3.383.072-1.223.587-2.371 1.546-3.446.958-1.074 2.06-1.718 3.303-1.93 1.244-.213 2.441-.002 3.592.63.586.345 1.376.961 2.371 1.849.08.07.084.146.013.226z"/>
    </defs>
    <g fill="none" fill-rule="evenodd" transform="translate(1)">
        <g fill-rule="nonzero" transform="translate(6 214)">
            <use fill="#FFF" xlink:href="#prefix__a"/>
            <use fill="#FFFBFB" xlink:href="#prefix__a"/>
        </g>
        <circle cx="125" cy="125" r="124.5" fill="#D8D8D8" fill-opacity=".5" stroke="#979797"/>
        <path fill="#FFF" fill-rule="nonzero" d="M32.2 139v-12.12H45V139h5.12v-28H45v11.08H32.2V111h-5.12v28h5.12zm32.4.4c1.333 0 2.567-.14 3.7-.42 1.133-.28 2.127-.647 2.98-1.1l-.24-4.2c-1.84 1.093-3.84 1.64-6 1.64-1.573 0-2.92-.433-4.04-1.3s-1.813-2.18-2.08-3.94h12.92c.213-1.013.32-1.92.32-2.72 0-1.627-.327-3.093-.98-4.4-.653-1.307-1.627-2.347-2.92-3.12-1.293-.773-2.873-1.16-4.74-1.16-2.027 0-3.773.46-5.24 1.38-1.467.92-2.587 2.153-3.36 3.7-.773 1.547-1.16 3.253-1.16 5.12 0 1.947.407 3.713 1.22 5.3.813 1.587 2.04 2.853 3.68 3.8 1.64.947 3.62 1.42 5.94 1.42zm2.52-12.68h-8.08c.267-1.2.773-2.16 1.52-2.88.747-.72 1.733-1.08 2.96-1.08 1.227 0 2.133.4 2.72 1.2.587.8.88 1.72.88 2.76zm25.16 12.68l.44-4.08h-.64c-.533 0-.913-.06-1.14-.18-.227-.12-.387-.4-.48-.84-.093-.44-.14-1.167-.14-2.18v-5.4c0-2.8-.62-4.84-1.86-6.12-1.24-1.28-3.033-1.92-5.38-1.92-2.427 0-4.853.587-7.28 1.76l.44 4.04c1.093-.533 2.06-.92 2.9-1.16.84-.24 1.7-.36 2.58-.36 1.253 0 2.153.253 2.7.76.547.507.847 1.347.9 2.52-1.573.053-3.213.3-4.92.74-1.707.44-3.187 1.187-4.44 2.24-1.253 1.053-1.88 2.447-1.88 4.18 0 1.84.553 3.3 1.66 4.38 1.107 1.08 2.487 1.62 4.14 1.62 1.227 0 2.393-.207 3.5-.62 1.107-.413 1.98-.98 2.62-1.7.4.72.973 1.287 1.72 1.7.747.413 1.667.62 2.76.62h1.8zm-10.32-3.8c-.933 0-1.613-.193-2.04-.58-.427-.387-.64-.993-.64-1.82 0-1.093.613-1.947 1.84-2.56s2.64-.96 4.24-1.04v4.56c-.48.453-1.04.807-1.68 1.06-.64.253-1.213.38-1.72.38zm20.44 3.8l.44-4.08c-.747 0-1.273-.047-1.58-.14-.307-.093-.52-.36-.64-.8-.12-.44-.18-1.193-.18-2.26V109h-4.96v25.16c0 1.547.427 2.807 1.28 3.78.853.973 2.133 1.46 3.84 1.46h1.8zm13.48 0l.44-4.08h-1.36c-1.013 0-1.713-.06-2.1-.18s-.64-.387-.76-.8c-.12-.413-.18-1.153-.18-2.22v-9.04h4.4V119h-4.4v-4.92l-4.96.52v4.4h-2.4l-.44 4.08h2.84v11.08c0 1.44.453 2.673 1.36 3.7.907 1.027 2.24 1.54 4 1.54h3.56zm8.6-.4v-14.52c1.013-1.147 2.307-1.72 3.88-1.72 1.333 0 2.307.44 2.92 1.32.613.88.92 2.267.92 4.16V139h4.96v-11.12c0-2.853-.62-5.1-1.86-6.74-1.24-1.64-3.127-2.46-5.66-2.46-.987 0-1.893.14-2.72.42-.827.28-1.64.673-2.44 1.18V109h-4.96v30h4.96zm22.28 0v-12.12h9.36v-4.96h-9.36v-5.96h12.12V111h-17.24v28h5.12zm22.8.4c2.107 0 3.933-.467 5.48-1.4 1.547-.933 2.733-2.187 3.56-3.76s1.24-3.307 1.24-5.2c0-1.893-.413-3.64-1.24-5.24s-2.013-2.867-3.56-3.8c-1.547-.933-3.373-1.4-5.48-1.4s-3.933.467-5.48 1.4c-1.547.933-2.733 2.2-3.56 3.8-.827 1.6-1.24 3.347-1.24 5.24 0 1.893.413 3.627 1.24 5.2.827 1.573 2.013 2.827 3.56 3.76 1.547.933 3.373 1.4 5.48 1.4zm0-4.08c-1.627 0-2.9-.573-3.82-1.72-.92-1.147-1.38-2.667-1.38-4.56 0-1.92.46-3.46 1.38-4.62.92-1.16 2.193-1.74 3.82-1.74 1.627 0 2.9.58 3.82 1.74.92 1.16 1.38 2.7 1.38 4.62 0 1.893-.46 3.413-1.38 4.56-.92 1.147-2.193 1.72-3.82 1.72zm22.8 4.08c2.107 0 3.933-.467 5.48-1.4 1.547-.933 2.733-2.187 3.56-3.76s1.24-3.307 1.24-5.2c0-1.893-.413-3.64-1.24-5.24s-2.013-2.867-3.56-3.8c-1.547-.933-3.373-1.4-5.48-1.4s-3.933.467-5.48 1.4c-1.547.933-2.733 2.2-3.56 3.8-.827 1.6-1.24 3.347-1.24 5.24 0 1.893.413 3.627 1.24 5.2.827 1.573 2.013 2.827 3.56 3.76 1.547.933 3.373 1.4 5.48 1.4zm0-4.08c-1.627 0-2.9-.573-3.82-1.72-.92-1.147-1.38-2.667-1.38-4.56 0-1.92.46-3.46 1.38-4.62.92-1.16 2.193-1.74 3.82-1.74 1.627 0 2.9.58 3.82 1.74.92 1.16 1.38 2.7 1.38 4.62 0 1.893-.46 3.413-1.38 4.56-.92 1.147-2.193 1.72-3.82 1.72zm21.8 4.08c1.147 0 2.14-.14 2.98-.42.84-.28 1.647-.7 2.42-1.26l.08 1.28h4.68v-30h-4.96v11.28c-1.52-1.067-3.253-1.6-5.2-1.6s-3.62.467-5.02 1.4c-1.4.933-2.46 2.187-3.18 3.76-.72 1.573-1.08 3.307-1.08 5.2 0 1.893.36 3.627 1.08 5.2.72 1.573 1.78 2.827 3.18 3.76 1.4.933 3.073 1.4 5.02 1.4zm.72-4.08c-1.547 0-2.753-.573-3.62-1.72s-1.3-2.667-1.3-4.56c0-1.893.433-3.413 1.3-4.56.867-1.147 2.073-1.72 3.62-1.72 1.573 0 2.753.56 3.54 1.68.787 1.12 1.18 2.653 1.18 4.6 0 1.947-.393 3.48-1.18 4.6-.787 1.12-1.967 1.68-3.54 1.68z"/>
    </g>
</svg>

