<svg xmlns="http://www.w3.org/2000/svg" width="109" height="18" viewBox="0 0 109 18">
  <path fill="#FFE3B3" fill-rule="evenodd" d="M180.980223,563 C180.438427,563 180,563.43779 180,563.97859 C180,567.553019 180,579.978537 180,585.754794 C180,587.693947 180.675463,589.56872 181.908762,591.064932 C181.908762,591.064932 181.908762,591.064932 181.908762,591.064932 C185.168449,595.01277 186.950673,599.970102 186.950673,605.089673 L186.950673,635.747869 C186.950673,637.514481 186.604921,639.263067 185.933023,640.898342 C183.666034,646.514934 184.006439,670.82002 186.950673,670.82002 L190.336898,670.82002 C193.222318,670.82002 193.32034,641.815127 190.630965,639.850221 C190.472347,639.819318 190.360067,639.680255 190.360067,639.520591 C190.336898,637.009735 190.336898,614.203436 190.336898,603.137643 C190.336898,599.285089 191.702081,595.556145 194.190065,592.61265 C194.190065,592.61265 194.190065,592.61265 194.190065,592.61265 C195.703173,590.82286 196.53369,588.556651 196.53369,586.213186 C196.53369,579.852351 196.53369,567.061149 196.53369,563.780297 C196.53369,563.574278 196.451707,563.375985 196.305565,563.229196 C196.159423,563.082408 195.959814,563 195.753076,563 C195.753076,563 195.751293,563 195.751293,563 C195.319995,563 194.970679,563.350232 194.970679,563.780297 C194.970679,567.092052 194.970679,580.014591 194.970679,584.346139 C194.970679,585.134162 194.332643,585.770245 193.5449,585.770245 C193.5449,585.770245 193.5449,585.770245 193.5449,585.770245 C192.757158,585.770245 192.119121,585.134162 192.119121,584.346139 C192.119121,580.06352 192.119121,567.370177 192.119121,563.891032 C192.119121,563.399162 191.719903,563 191.22801,563 C191.22801,563 191.22801,563 191.22801,563 C190.736116,563 190.336898,563.399162 190.336898,563.891032 C190.336898,567.29807 190.336898,579.556198 190.336898,584.078314 C190.336898,584.528981 190.158675,584.959045 189.84144,585.2758 C189.524204,585.592554 189.092906,585.770245 188.643785,585.770245 C188.643785,585.770245 188.643785,585.770245 188.643785,585.770245 C188.194665,585.770245 187.763367,585.592554 187.446131,585.2758 C187.128895,584.959045 186.950673,584.528981 186.950673,584.078314 C186.950673,579.594827 186.950673,567.506665 186.950673,563.97859 C186.950673,563.43779 186.512246,563 185.97045,563 C185.97045,563 185.97045,563 185.97045,563 C185.428654,563 184.990226,563.43779 184.990226,563.97859 C184.990226,567.555594 184.990226,579.927032 184.990226,584.258581 C184.990226,584.660318 184.831609,585.044028 184.546453,585.327304 C184.263079,585.61058 183.878119,585.770245 183.477119,585.770245 C183.475336,585.770245 183.475336,585.770245 183.473554,585.770245 C183.072554,585.770245 182.687593,585.61058 182.40422,585.327304 C182.120846,585.044028 181.960446,584.660318 181.960446,584.258581 C181.960446,579.927032 181.960446,567.555594 181.960446,563.97859 C181.960446,563.43779 181.522019,563 180.980223,563 C180.980223,563 180.980223,563 180.980223,563 Z" transform="rotate(-90 -182.733 379.91)"/>
</svg>
