<svg xmlns="http://www.w3.org/2000/svg" width="109" height="18" viewBox="0 0 109 18">
  <path fill="#FFE3B3" fill-rule="evenodd" d="M180.980223,21 C180.438427,21 180,21.4377903 180,21.97859 C180,25.5530189 180,37.9785372 180,43.7547937 C180,45.6939471 180.675463,47.5687196 181.908762,49.0649322 C181.908762,49.0649322 181.908762,49.0649322 181.908762,49.0649322 C185.168449,53.0127705 186.950673,57.9701016 186.950673,63.0896727 L186.950673,93.7478685 C186.950673,95.514481 186.604921,97.2630669 185.933023,98.8983424 C183.666034,104.514934 184.006439,128.82002 186.950673,128.82002 L190.336898,128.82002 C193.222318,128.82002 193.32034,99.8151267 190.630965,97.850221 C190.472347,97.8193181 190.360067,97.6802553 190.360067,97.5205906 C190.336898,95.0097346 190.336898,72.2034362 190.336898,61.137643 C190.336898,57.2850886 191.702081,53.5561455 194.190065,50.6126496 C194.190065,50.6126496 194.190065,50.6126496 194.190065,50.6126496 C195.703173,48.82286 196.53369,46.5566515 196.53369,44.2131858 C196.53369,37.8523506 196.53369,25.0611487 196.53369,21.7802968 C196.53369,21.5742778 196.451707,21.3759846 196.305565,21.2291961 C196.159423,21.0824076 195.959814,21 195.753076,21 C195.753076,21 195.751293,21 195.751293,21 C195.319995,21 194.970679,21.3502322 194.970679,21.7802968 C194.970679,25.0920515 194.970679,38.0145905 194.970679,42.346139 C194.970679,43.1341616 194.332643,43.7702451 193.5449,43.7702451 C193.5449,43.7702451 193.5449,43.7702451 193.5449,43.7702451 C192.757158,43.7702451 192.119121,43.1341616 192.119121,42.346139 C192.119121,38.06352 192.119121,25.3701771 192.119121,21.891032 C192.119121,21.3991617 191.719903,21 191.22801,21 C191.22801,21 191.22801,21 191.22801,21 C190.736116,21 190.336898,21.3991617 190.336898,21.891032 C190.336898,25.2980705 190.336898,37.5561983 190.336898,42.0783144 C190.336898,42.5289809 190.158675,42.9590454 189.84144,43.2757996 C189.524204,43.5925537 189.092906,43.7702451 188.643785,43.7702451 C188.643785,43.7702451 188.643785,43.7702451 188.643785,43.7702451 C188.194665,43.7702451 187.763367,43.5925537 187.446131,43.2757996 C187.128895,42.9590454 186.950673,42.5289809 186.950673,42.0783144 C186.950673,37.5948269 186.950673,25.5066647 186.950673,21.97859 C186.950673,21.4377903 186.512246,21 185.97045,21 C185.97045,21 185.97045,21 185.97045,21 C185.428654,21 184.990226,21.4377903 184.990226,21.97859 C184.990226,25.5555942 184.990226,37.9270324 184.990226,42.258581 C184.990226,42.660318 184.831609,43.0440283 184.546453,43.3273043 C184.263079,43.6105804 183.878119,43.7702451 183.477119,43.7702451 C183.475336,43.7702451 183.475336,43.7702451 183.473554,43.7702451 C183.072554,43.7702451 182.687593,43.6105804 182.40422,43.3273043 C182.120846,43.0440283 181.960446,42.660318 181.960446,42.258581 C181.960446,37.9270324 181.960446,25.5555942 181.960446,21.97859 C181.960446,21.4377903 181.522019,21 180.980223,21 C180.980223,21 180.980223,21 180.980223,21 Z" transform="rotate(90 154.267 -25.09)"/>
</svg>
